<svg width="52" height="36" viewBox="0 0 164 113" xmlns="http://www.w3.org/2000/svg"><g fill="none" fill-rule="evenodd"><path d="M42.138 55.96c.12-1.328.24-2.536.24-3.623 0-5.555-2.527-7.487-6.62-7.487-2.409 0-5.419 1.57-7.586 3.14l-3.13 21.375c1.926.363 3.492.483 5.057.483 7.344 0 10.594-4.83 12.04-13.888zM34.196 7.202a3014.218 3014.218 0 01-.722 4.442c-1.967 12.045-3.132 18.645-3.496 19.8l.361.122c5.057-3.382 10.113-5.193 15.892-5.193 12.28 0 19.866 6.521 19.866 21.013 0 24.032-14.568 40.456-40.333 40.456-7.584 0-16.012-.362-25.764-1.932l10.718-72.8.43-2.925 23.048-2.982zm64.155 18.273l-8.757 60.36-23.189 3.041 8.635-60.384 23.31-3.017zm7.17 2.73l21.09-2.73-.688 5.519c.12 0 .24.12.36.12.121 0 .241-.12.241-.12 5.057-3.623 11.077-5.435 16.615-5.435 11.678 0 20.708 7.125 20.708 22.704 0 24.757-16.374 38.525-33.59 38.525-3.492 0-6.983-.484-10.475-1.329l-3.448 24.311-23.267 3.033 12.453-84.599zm23.05 40.95c9.03 0 11.799-9.54 11.799-17.631 0-5.797-2.89-7.005-6.742-7.005-1.806 0-5.057.967-8.187 2.899l-3.13 21.134c1.926.362 3.491.604 6.26.604z" fill="#fff"/><path d="M77.175 8.091l.015-.047L87.894 6.64a1.639 1.639 0 001.41-1.838 1.638 1.638 0 00-1.532-1.425L58.705 7.19a1.636 1.636 0 01-1.834-1.413 1.639 1.639 0 011.41-1.839L86.034.298c.412-.077.832-.134 1.26-.167l.04-.003.137-.018a1.642 1.642 0 01.263-.013l.823-.064a9.918 9.918 0 0110.687 9.886c0 6.05-4.655 11.083-10.687 11.553l-1.263.099c-4.685.365-8.863-2.587-10.224-6.882l4.402-.578a1.639 1.639 0 001.41-1.838 1.637 1.637 0 00-1.522-1.424l-15.12 1.983a1.636 1.636 0 01-1.833-1.413 1.639 1.639 0 011.409-1.838l11.359-1.49zm-25.092-3.34a1.636 1.636 0 011.833 1.413 1.639 1.639 0 01-1.41 1.838l-6.389.838a1.636 1.636 0 01-1.833-1.413 1.639 1.639 0 011.409-1.838l6.39-.838z" fill="#FFA05D"/></g></svg>